<?xml version="1.0" encoding="utf-8"?>
<!-- Generator: Adobe Illustrator 27.0.0, SVG Export Plug-In . SVG Version: 6.00 Build 0)  -->
<svg version="1.1" xmlns="http://www.w3.org/2000/svg" xmlns:xlink="http://www.w3.org/1999/xlink" x="0px" y="0px"
	 viewBox="0 0 680.35 116" style="enable-background:new 0 0 680.35 116;" xml:space="preserve">
<style type="text/css">
	.st0{fill:#88C542;stroke:#000000;stroke-width:2;stroke-miterlimit:10;}
</style>
<g id="Layer_1">
</g>
<g id="Layer_2">
	<g>
		<path d="M149.08,33.28c0-2.45,0.55-4.24,1.66-5.36c1.11-1.12,2.66-1.68,4.64-1.68c1.96,0,3.5,0.56,4.62,1.68
			c1.12,1.12,1.68,2.91,1.68,5.36v15.07h13.66V33.28c0-2.45,0.55-4.24,1.66-5.36c1.11-1.12,2.64-1.68,4.6-1.68
			c1.98,0,3.54,0.56,4.66,1.68c1.12,1.12,1.68,2.91,1.68,5.36v42.86c0,2.45-0.56,4.23-1.68,5.34c-1.12,1.11-2.66,1.66-4.62,1.66
			c-1.98,0-3.53-0.55-4.64-1.66c-1.11-1.11-1.66-2.89-1.66-5.34V60.05h-13.66v16.09c0,2.45-0.56,4.23-1.68,5.34
			c-1.12,1.11-2.66,1.66-4.62,1.66c-1.98,0-3.53-0.55-4.64-1.66c-1.11-1.11-1.66-2.89-1.66-5.34V33.28z"/>
		<path d="M199.3,34.14c0-2.71,0.57-4.64,1.7-5.79c1.14-1.15,2.75-1.72,4.83-1.72h17.5c4.49,0,6.73,1.97,6.73,5.91
			c0,3.91-2.25,5.87-6.73,5.87h-11.55V48.7h9.36c4.04,0,6.07,1.76,6.07,5.28c0,3.52-2.02,5.28-6.07,5.28h-9.36v11.7h11.63
			c4.46,0,6.69,1.96,6.69,5.87c0,3.94-2.23,5.91-6.69,5.91h-17.65c-2.06,0-3.65-0.57-4.78-1.7c-1.12-1.13-1.68-3.06-1.68-5.77V34.14
			z"/>
		<path d="M239.49,33.28c0-2.45,0.56-4.24,1.68-5.36c1.12-1.12,2.66-1.68,4.62-1.68c1.96,0,3.5,0.56,4.62,1.68
			c1.12,1.12,1.68,2.91,1.68,5.36v37.27h11.67c4.46,0,6.69,2.04,6.69,6.11s-2.23,6.11-6.69,6.11h-17.69c-2.09,0-3.71-0.57-4.85-1.72
			c-1.15-1.15-1.72-3.14-1.72-5.99V33.28z"/>
		<path d="M279.42,33.28c0-2.45,0.56-4.24,1.68-5.36c1.12-1.12,2.66-1.68,4.62-1.68c1.96,0,3.5,0.56,4.62,1.68
			c1.12,1.12,1.68,2.91,1.68,5.36v37.27h11.67c4.46,0,6.69,2.04,6.69,6.11s-2.23,6.11-6.69,6.11h-17.69c-2.09,0-3.71-0.57-4.85-1.72
			c-1.15-1.15-1.72-3.14-1.72-5.99V33.28z"/>
		<path d="M340.34,83.58c-4.1,0-7.76-0.91-11-2.74c-3.24-1.83-5.79-4.67-7.65-8.53c-1.87-3.86-2.8-8.85-2.8-14.95v-5.32
			c0-6.11,0.93-11.09,2.8-14.95c1.87-3.86,4.42-6.71,7.65-8.53c3.24-1.83,6.9-2.74,11-2.74c4.12,0,7.8,0.91,11.04,2.74
			c3.24,1.83,5.79,4.67,7.65,8.53c1.87,3.86,2.8,8.85,2.8,14.95v5.32c0,6.08-0.93,11.06-2.8,14.93c-1.87,3.88-4.42,6.73-7.65,8.55
			C348.14,82.67,344.46,83.58,340.34,83.58z M348.95,52.5c0-5.32-0.74-9.02-2.23-11.1s-3.61-3.11-6.38-3.11
			c-2.74,0-4.86,1.04-6.36,3.11c-1.5,2.07-2.25,5.77-2.25,11.1v4.38c0,5.32,0.75,9.02,2.25,11.1c1.5,2.07,3.62,3.11,6.36,3.11
			c2.77,0,4.89-1.04,6.38-3.11s2.23-5.77,2.23-11.1V52.5z"/>
		<path d="M381.47,35.82c-0.81-3.03-0.66-5.38,0.45-7.07s2.97-2.52,5.58-2.52c1.96,0,3.45,0.55,4.46,1.66
			c1.02,1.11,1.75,2.86,2.19,5.27l8.1,35.74l8.06-35.74c0.44-2.4,1.16-4.16,2.15-5.27c0.99-1.11,2.44-1.66,4.35-1.66
			c2.58,0,4.43,0.84,5.54,2.52c1.11,1.68,1.25,4.04,0.41,7.07l-10.84,38.91c-0.86,3.16-2.09,5.35-3.68,6.58s-3.63,1.84-6.11,1.84
			c-2.48,0-4.53-0.61-6.15-1.84c-1.62-1.23-2.84-3.42-3.68-6.58L381.47,35.82z"/>
		<path d="M433.92,33.28c0-2.45,0.55-4.24,1.66-5.36c1.11-1.12,2.66-1.68,4.64-1.68c1.96,0,3.5,0.56,4.62,1.68
			c1.12,1.12,1.68,2.91,1.68,5.36v42.86c0,2.45-0.56,4.23-1.68,5.34c-1.12,1.11-2.66,1.66-4.62,1.66c-1.98,0-3.53-0.55-4.64-1.66
			c-1.11-1.11-1.66-2.89-1.66-5.34V33.28z"/>
		<path d="M459.48,33.98c0-2.87,0.67-4.88,2-6.03c1.33-1.15,2.96-1.72,4.89-1.72c2.06,0,3.84,0.72,5.32,2.15
			c1.49,1.44,2.96,3.91,4.42,7.44l10.84,22.94V33.59c0-2.64,0.58-4.52,1.74-5.66s2.63-1.7,4.4-1.7c1.7,0,3.09,0.57,4.19,1.7
			s1.64,3.02,1.64,5.66v41.73c0,2.92-0.62,4.96-1.86,6.11c-1.24,1.15-2.83,1.72-4.76,1.72c-2.06,0-3.88-0.71-5.44-2.11
			c-1.57-1.41-3.08-3.89-4.54-7.44l-10.88-22.98v25.13c0,2.69-0.59,4.59-1.76,5.71c-1.17,1.12-2.62,1.68-4.34,1.68
			s-3.13-0.57-4.23-1.7c-1.1-1.13-1.64-3.02-1.64-5.66V33.98z"/>
		<path d="M520.23,38.84h-5.99c-4.49,0-6.73-2.04-6.73-6.11s2.24-6.11,6.73-6.11h24.54c4.49,0,6.73,2.04,6.73,6.11
			s-2.24,6.11-6.73,6.11h-5.95v37.31c0,2.45-0.56,4.23-1.68,5.34c-1.12,1.11-2.66,1.66-4.62,1.66c-1.98,0-3.53-0.55-4.64-1.66
			c-1.11-1.11-1.66-2.89-1.66-5.34V38.84z"/>
		<path d="M560.06,34.22c0.81-2.9,1.99-4.95,3.54-6.17s3.56-1.82,6.01-1.82c2.43,0,4.42,0.59,5.97,1.78s2.73,3.26,3.54,6.2
			l11.51,39.58c0.83,2.9,0.68,5.18-0.45,6.85c-1.14,1.67-3.06,2.51-5.77,2.51c-1.83,0-3.26-0.5-4.29-1.51
			c-1.03-1-1.76-2.38-2.17-4.13l-1.64-5.99h-13.66l-1.68,5.99c-0.42,1.72-1.12,3.09-2.09,4.11c-0.98,1.02-2.37,1.53-4.17,1.53
			c-2.66,0-4.56-0.83-5.7-2.51c-1.13-1.67-1.3-3.95-0.49-6.85L560.06,34.22z M574,61.31l-4.54-17.11l-4.5,17.11H574z"/>
		<path d="M597.56,57.35v-5.32c0-6.16,0.94-11.16,2.82-15.01c1.88-3.85,4.48-6.68,7.81-8.49c3.33-1.81,7.13-2.72,11.41-2.72
			c3.44,0,6.5,0.55,9.16,1.66c2.66,1.11,4.78,2.61,6.34,4.5c1.57,1.89,2.4,4.04,2.51,6.44c0.05,1.8-0.43,3.36-1.45,4.68
			c-1.02,1.32-2.45,1.98-4.31,1.98c-2.01,0-3.64-0.97-4.89-2.9c-0.76-1.3-1.72-2.28-2.88-2.94c-1.16-0.65-2.69-0.98-4.6-0.98
			c-2.79,0-5,1.04-6.63,3.13s-2.45,5.79-2.45,11.12v4.35c0,5.4,0.76,9.29,2.29,11.67c1.53,2.38,3.79,3.56,6.79,3.56
			c4.75,0,7.12-2.7,7.12-8.1v-2.11h-3.09c-1.72,0-3.08-0.45-4.07-1.35c-0.99-0.9-1.49-2.2-1.49-3.9c0-3.52,2.01-5.28,6.03-5.28h7.36
			c4.49,0,6.73,2.31,6.73,6.93v4.27c0,7.05-1.59,12.32-4.78,15.81c-3.18,3.5-7.87,5.25-14.05,5.25c-6.6,0-11.87-2.17-15.79-6.52
			C599.52,72.72,597.56,66.15,597.56,57.35z"/>
		<path d="M648.25,34.14c0-2.71,0.57-4.64,1.7-5.79c1.13-1.15,2.75-1.72,4.83-1.72h17.5c4.49,0,6.73,1.97,6.73,5.91
			c0,3.91-2.25,5.87-6.73,5.87h-11.55V48.7h9.36c4.04,0,6.07,1.76,6.07,5.28c0,3.52-2.02,5.28-6.07,5.28h-9.36v11.7h11.63
			c4.46,0,6.69,1.96,6.69,5.87c0,3.94-2.23,5.91-6.69,5.91h-17.65c-2.06,0-3.65-0.57-4.78-1.7c-1.12-1.13-1.68-3.06-1.68-5.77V34.14
			z"/>
	</g>
	<ellipse transform="matrix(1 -3.721324e-03 3.721324e-03 1 -0.2154 0.2206)" class="st0" cx="59.16" cy="58" rx="58.16" ry="57"/>
	<g>
		<g>
			<path d="M24.95,28.05c8.97,5.98,17.44,12.66,25.37,19.97c2.36,2.18,5.91-1.35,3.54-3.54c-8.23-7.6-17.06-14.54-26.38-20.76
				C24.79,21.94,22.28,26.27,24.95,28.05L24.95,28.05z"/>
		</g>
	</g>
	<g>
		<g>
			<path d="M48.89,25.73c-6.76,4.2-13.23,8.84-19.39,13.87c-1.05,0.85-0.89,2.65,0,3.54c1.04,1.04,2.49,0.86,3.54,0
				c5.83-4.76,11.98-9.12,18.38-13.09C54.14,28.35,51.64,24.02,48.89,25.73L48.89,25.73z"/>
		</g>
	</g>
	<g>
		<g>
			<path d="M62.78,30.25c8.97,5.98,17.44,12.66,25.37,19.97c2.36,2.18,5.91-1.35,3.54-3.54c-8.23-7.6-17.06-14.54-26.38-20.76
				C62.62,24.14,60.11,28.47,62.78,30.25L62.78,30.25z"/>
		</g>
	</g>
	<g>
		<g>
			<path d="M86.72,27.93c-6.76,4.2-13.23,8.84-19.39,13.87c-1.05,0.85-0.89,2.65,0,3.54c1.04,1.04,2.49,0.86,3.54,0
				c5.83-4.76,11.98-9.12,18.38-13.09C91.97,30.55,89.47,26.22,86.72,27.93L86.72,27.93z"/>
		</g>
	</g>
	<g>
		<g>
			<path d="M30.22,65.95c-1.41,10.82,4.62,22.18,14.13,27.42c5.9,3.25,12.73,3.74,19.32,3.9c3.35,0.08,6.83,0.1,10.06-0.93
				c2.86-0.92,5.41-2.62,7.34-4.92c4.92-5.87,5.65-13.47,6.11-20.83c0.2-3.21-4.8-3.2-5,0c-0.35,5.59-0.71,11.51-3.91,16.3
				c-1.24,1.85-2.96,3.46-5.03,4.33c-2.64,1.11-5.62,1.11-8.44,1.07c-5.54-0.09-11.54-0.19-16.65-2.6
				c-4.12-1.95-7.52-5.14-9.84-9.05c-2.64-4.45-3.74-9.56-3.07-14.69c0.17-1.34-1.27-2.5-2.5-2.5
				C31.22,63.45,30.39,64.61,30.22,65.95L30.22,65.95z"/>
		</g>
	</g>
	<g>
		<g>
			<path d="M35.59,62.91c-4.09-1.27-8.52-0.84-12.35,1.05c-0.88,0.43-1.19,1.76-0.67,2.57c0.58,0.9,1.62,1.14,2.57,0.67
				c0.22-0.11,0.45-0.22,0.68-0.32c-0.3,0.13,0.19-0.07,0.24-0.09c0.41-0.15,0.82-0.29,1.24-0.4c0.42-0.12,0.85-0.21,1.27-0.29
				c0.07-0.01,0.78-0.11,0.43-0.07c0.22-0.02,0.43-0.05,0.65-0.06c0.87-0.06,1.74-0.05,2.61,0.04c0.09,0.01,0.19,0.02,0.28,0.03
				c-0.19-0.03-0.17-0.02,0.06,0.01c0.21,0.04,0.43,0.08,0.64,0.12c0.46,0.1,0.91,0.22,1.35,0.36c0.94,0.29,2.09-0.34,2.31-1.31
				C37.13,64.2,36.6,63.22,35.59,62.91L35.59,62.91z"/>
		</g>
	</g>
	<g>
		<g>
			<path d="M81.52,69.25c0.19,0.01,0.37,0.02,0.56,0.04c0.26,0.02-0.1-0.01-0.17-0.03c0.09,0.03,0.19,0.03,0.28,0.04
				c0.33,0.06,0.66,0.14,0.98,0.23c0.18,0.05,0.36,0.11,0.53,0.17c0.07,0.03,0.14,0.05,0.21,0.08c0.29,0.11,0.02,0.05-0.09-0.04
				c0.12,0.1,0.32,0.15,0.46,0.21c0.17,0.08,0.33,0.17,0.49,0.27c0.29,0.17,0.57,0.35,0.84,0.55c0.24,0.17,0.04,0.05-0.07-0.06
				c0.05,0.05,0.12,0.09,0.17,0.14c0.14,0.12,0.28,0.24,0.42,0.37c0.24,0.23,0.47,0.48,0.69,0.73c0.03,0.03,0.26,0.33,0.06,0.07
				c-0.19-0.26,0.03,0.05,0.06,0.08c0.11,0.15,0.21,0.31,0.31,0.46c0.53,0.83,1.69,1.24,2.57,0.67c0.83-0.53,1.24-1.68,0.67-2.57
				c-1.96-3.09-5.33-5.03-8.98-5.2c-0.98-0.05-1.92,0.9-1.88,1.88C79.69,68.43,80.46,69.2,81.52,69.25L81.52,69.25z"/>
		</g>
	</g>
</g>
</svg>
