<?xml version="1.0" encoding="utf-8"?>
<!-- Generator: Adobe Illustrator 26.0.0, SVG Export Plug-In . SVG Version: 6.00 Build 0)  -->
<svg version="1.1" id="Layer_1" xmlns="http://www.w3.org/2000/svg" xmlns:xlink="http://www.w3.org/1999/xlink" x="0px" y="0px"
	 viewBox="0 0 257.76 252.71" style="enable-background:new 0 0 257.76 252.71;" xml:space="preserve">
<style type="text/css">
	.st0{fill:#88C542;stroke:#000000;stroke-width:3;stroke-miterlimit:10;}
</style>
<ellipse transform="matrix(1 -3.721324e-03 3.721324e-03 1 -0.472 0.4738)" class="st0" cx="127.07" cy="127.07" rx="64.23" ry="62.95"/>
<g>
	<g>
		<path d="M89.74,92.19c9.97,6.65,19.39,14.07,28.2,22.2c1.77,1.63,4.43-1.01,2.65-2.65c-9.04-8.34-18.73-15.96-28.95-22.78
			C89.62,87.61,87.74,90.86,89.74,92.19L89.74,92.19z"/>
	</g>
</g>
<g>
	<g>
		<path d="M116.18,91.16c-7.4,4.59-14.49,9.68-21.24,15.18c-0.79,0.64-0.67,1.99,0,2.65c0.78,0.78,1.86,0.64,2.65,0
			c6.5-5.31,13.35-10.17,20.48-14.6C120.12,93.13,118.24,89.88,116.18,91.16L116.18,91.16z"/>
	</g>
</g>
<g>
	<g>
		<path d="M131.52,94.63c9.97,6.65,19.39,14.07,28.2,22.2c1.77,1.63,4.43-1.01,2.65-2.65c-9.04-8.34-18.73-15.96-28.95-22.78
			C131.39,90.04,129.52,93.29,131.52,94.63L131.52,94.63z"/>
	</g>
</g>
<g>
	<g>
		<path d="M157.96,93.59c-7.4,4.59-14.49,9.68-21.24,15.18c-0.79,0.64-0.67,1.99,0,2.65c0.78,0.78,1.86,0.64,2.65,0
			c6.5-5.31,13.35-10.17,20.48-14.6C161.9,95.56,160.02,92.32,157.96,93.59L157.96,93.59z"/>
	</g>
</g>
<g>
	<g>
		<path d="M95.99,134.82c-1.53,11.66,4.9,23.86,15.16,29.51c6.32,3.48,13.64,4.01,20.71,4.19c3.48,0.09,7.06,0.13,10.45-0.81
			c3.22-0.89,6.08-2.75,8.25-5.29c5.34-6.28,6.08-14.59,6.57-22.48c0.15-2.41-3.6-2.4-3.75,0c-0.4,6.37-0.83,13.1-4.51,18.55
			c-1.55,2.29-3.72,4.23-6.33,5.22c-2.98,1.12-6.21,1.15-9.35,1.09c-6.32-0.11-13.08-0.27-18.88-3.06
			c-4.62-2.22-8.43-5.85-11.04-10.24c-2.98-5.03-4.28-10.87-3.51-16.68c0.13-1.01-0.96-1.88-1.88-1.88
			C96.75,132.94,96.13,133.81,95.99,134.82L95.99,134.82z"/>
	</g>
</g>
<g>
	<g>
		<path d="M152.85,140.39c0.21,0.01,0.41,0.03,0.62,0.04c0.29,0.03-0.1,0.02-0.13-0.02c0.03,0.04,0.25,0.04,0.3,0.05
			c0.36,0.06,0.73,0.15,1.08,0.25c0.2,0.06,0.39,0.12,0.59,0.19c0.08,0.03,0.15,0.06,0.23,0.09c0.36,0.14,0.01-0.05-0.05-0.02
			c0.06-0.03,0.42,0.2,0.5,0.24c0.18,0.09,0.37,0.19,0.54,0.29c0.32,0.19,0.63,0.39,0.93,0.61c0.23,0.17,0.07,0.11-0.04-0.03
			c0.05,0.06,0.13,0.11,0.19,0.16c0.16,0.13,0.31,0.27,0.46,0.41c0.27,0.26,0.52,0.52,0.76,0.81c0.02,0.02,0.27,0.34,0.09,0.1
			c-0.18-0.25,0.06,0.08,0.08,0.11c0.12,0.17,0.23,0.34,0.34,0.51c0.53,0.83,1.69,1.24,2.57,0.67c0.83-0.53,1.24-1.68,0.67-2.57
			c-2.13-3.35-5.79-5.46-9.75-5.65c-0.98-0.05-1.92,0.9-1.88,1.88C151.03,139.57,151.8,140.34,152.85,140.39L152.85,140.39z"/>
	</g>
</g>
<g>
	<g>
		<path d="M100.99,131.65c-4.47-1.38-9.31-0.92-13.49,1.13c-0.91,0.45-1.16,1.74-0.67,2.57c0.54,0.93,1.65,1.12,2.57,0.67
			c0.77-0.38,1.47-0.65,2.44-0.91c0.46-0.13,0.93-0.23,1.41-0.32c0.57-0.1,0.63-0.11,1.24-0.15c0.96-0.07,1.93-0.05,2.88,0.05
			c0.32,0.03,0.63,0.08,1.13,0.19c0.51,0.11,1,0.24,1.5,0.39c0.94,0.29,2.09-0.34,2.31-1.31
			C102.53,132.94,101.99,131.96,100.99,131.65L100.99,131.65z"/>
	</g>
</g>
</svg>
